<svg xmlns="http://www.w3.org/2000/svg" version="1.1" xmlns:xlink="http://www.w3.org/1999/xlink" xmlns:svgjs="http://svgjs.dev/svgjs" width="1000" height="1000" viewBox="0 0 1000 1000"><rect width="1000" height="1000" fill="#282634"></rect><g transform="matrix(0.7,0,0,0.7,149.57577669196957,455.364947584584)"><svg viewBox="0 0 396 51" data-background-color="#282634" preserveAspectRatio="xMidYMid meet" height="128" width="1000" xmlns="http://www.w3.org/2000/svg" xmlns:xlink="http://www.w3.org/1999/xlink"><defs></defs><g id="tight-bounds" transform="matrix(1,0,0,1,0.2399891856857721,-0.09388757604671127)"><svg viewBox="0 0 395.52 51.187775152093444" height="51.187775152093444" width="395.52"><g><svg viewBox="0 0 480.8229517890738 62.227591889525115" height="51.187775152093444" width="395.52"><g transform="matrix(1,0,0,1,85.30295178907379,8.600195405860568)"><svg viewBox="0 0 395.52 45.02720107780398" height="45.02720107780398" width="395.52"><g><svg viewBox="0 0 395.52 45.02720107780398" height="45.02720107780398" width="395.52"><g><svg viewBox="0 0 395.52 45.02720107780398" height="45.02720107780398" width="395.52"><g transform="matrix(1,0,0,1,0,0)"><svg width="395.52" viewBox="0.44999998807907104 -33.20000076293945 293.97998046875 33.79999923706055" height="45.02720107780398" data-palette-color="#ff4057"><g class="undefined-text-0" data-fill-palette-color="primary" id="text-0"><path d="M12.2-16.5L12.2-16.5 11.45-13.5 18.3-13.5 17.55-16.5Q16.9-18.95 16.2-21.68 15.5-24.4 14.95-27L14.95-27 14.75-27Q14.15-24.4 13.5-21.68 12.85-18.95 12.2-16.5ZM7.95 0L0.45 0 10.6-32.6 19.4-32.6 29.55 0 21.75 0 19.8-7.75 9.95-7.75 7.95 0ZM42.95 0L33.5 0 33.5-32.6 42.5-32.6Q46.05-32.6 48.95-31.65 51.85-30.7 53.9-28.73 55.95-26.75 57.07-23.7 58.2-20.65 58.2-16.45L58.2-16.45Q58.2-12.25 57.1-9.15 56-6.05 53.97-4.03 51.95-2 49.15-1 46.35 0 42.95 0L42.95 0ZM40.9-26.65L40.9-5.95 42.1-5.95Q44-5.95 45.57-6.5 47.15-7.05 48.27-8.28 49.4-9.5 50.02-11.5 50.65-13.5 50.65-16.45L50.65-16.45Q50.65-19.35 50.02-21.33 49.4-23.3 48.27-24.48 47.15-25.65 45.57-26.15 44-26.65 42.1-26.65L42.1-26.65 40.9-26.65ZM72.2-16.5L72.2-16.5 71.45-13.5 78.3-13.5 77.55-16.5Q76.9-18.95 76.2-21.68 75.5-24.4 74.95-27L74.95-27 74.75-27Q74.15-24.4 73.5-21.68 72.84-18.95 72.2-16.5ZM67.95 0L60.45 0 70.59-32.6 79.4-32.6 89.55 0 81.75 0 79.8-7.75 69.95-7.75 67.95 0ZM98.99 0L92.89 0 92.89-32.6 100.59-32.6 103.79-21.05 104.89-16.55 105.09-16.55 106.19-21.05 109.39-32.6 117.09-32.6 117.09 0 110.89 0 110.89-10.1Q110.89-11.45 110.99-13.5 111.09-15.55 111.24-17.7 111.39-19.85 111.57-21.88 111.74-23.9 111.84-25.2L111.84-25.2 111.69-25.2 109.19-16.5 106.69-8.65 103.09-8.65 100.54-16.5 98.19-25.2 98.04-25.2Q98.19-23.9 98.34-21.88 98.49-19.85 98.64-17.7 98.79-15.55 98.89-13.5 98.99-11.45 98.99-10.1L98.99-10.1 98.99 0Z" fill="#ff4057" data-fill-palette-color="primary"></path><path d="M132.69 0L120.79 0 120.79-32.6 131.74-32.6Q134.29-32.6 136.47-32.23 138.64-31.85 140.24-30.9 141.84-29.95 142.77-28.4 143.69-26.85 143.69-24.5L143.69-24.5Q143.69-23.4 143.37-22.3 143.04-21.2 142.34-20.25 141.64-19.3 140.59-18.55 139.54-17.8 138.09-17.45L138.09-17.45 138.09-17.25Q141.59-16.6 143.39-14.75 145.19-12.9 145.19-9.6L145.19-9.6Q145.19-7.1 144.24-5.3 143.29-3.5 141.59-2.33 139.89-1.15 137.62-0.58 135.34 0 132.69 0L132.69 0ZM128.14-26.85L128.14-19.5 131.39-19.5Q134.09-19.5 135.29-20.55 136.49-21.6 136.49-23.5L136.49-23.5Q136.49-25.3 135.27-26.08 134.04-26.85 131.44-26.85L131.44-26.85 128.14-26.85ZM128.14-14.2L128.14-5.75 132.09-5.75Q137.99-5.75 137.99-10.15L137.99-10.15Q137.99-12.3 136.57-13.25 135.14-14.2 132.09-14.2L132.09-14.2 128.14-14.2ZM162.09 0.6L162.09 0.6Q159.19 0.6 156.76-0.5 154.34-1.6 152.61-3.75 150.89-5.9 149.94-9.08 148.99-12.25 148.99-16.45L148.99-16.45Q148.99-20.55 149.94-23.68 150.89-26.8 152.61-28.93 154.34-31.05 156.76-32.13 159.19-33.2 162.09-33.2L162.09-33.2Q164.99-33.2 167.41-32.13 169.84-31.05 171.56-28.93 173.29-26.8 174.24-23.68 175.19-20.55 175.19-16.45L175.19-16.45Q175.19-12.25 174.24-9.08 173.29-5.9 171.56-3.75 169.84-1.6 167.41-0.5 164.99 0.6 162.09 0.6ZM162.09-5.75L162.09-5.75Q164.64-5.75 166.14-8.45 167.64-11.15 167.64-16.45L167.64-16.45Q167.64-21.55 166.14-24.2 164.64-26.85 162.09-26.85L162.09-26.85Q159.54-26.85 158.04-24.2 156.54-21.55 156.54-16.45L156.54-16.45Q156.54-11.15 158.04-8.45 159.54-5.75 162.09-5.75ZM185.84 0L177.99 0 187.49-16.75 178.54-32.6 186.79-32.6 189.93-26.45Q190.49-25.3 191.09-24.03 191.68-22.75 192.43-21.2L192.43-21.2 192.64-21.2Q193.24-22.75 193.76-24.03 194.29-25.3 194.84-26.45L194.84-26.45 197.74-32.6 205.64-32.6 196.68-16.4 206.18 0 197.99 0 194.43-6.65Q193.74-7.95 193.14-9.22 192.54-10.5 191.84-12L191.84-12 191.64-12Q191.04-10.5 190.43-9.22 189.84-7.95 189.24-6.65L189.24-6.65 185.84 0ZM233.38 0L210.78 0 210.78-6.2 218.38-6.2 218.38-26.4 210.78-26.4 210.78-32.6 233.38-32.6 233.38-26.4 225.78-26.4 225.78-6.2 233.38-6.2 233.38 0ZM247.43 0L240.38 0 240.38-32.6 247.93-32.6 254.78-16.4 257.58-9.2 257.78-9.2Q257.53-11.8 257.13-14.98 256.73-18.15 256.73-21.05L256.73-21.05 256.73-32.6 263.78-32.6 263.78 0 256.23 0 249.38-16.25 246.58-23.35 246.38-23.35Q246.63-20.65 247.03-17.55 247.43-14.45 247.43-11.55L247.43-11.55 247.43 0ZM284.23 0.6L284.23 0.6Q281.08 0.6 278.35-0.48 275.63-1.55 273.6-3.65 271.58-5.75 270.43-8.88 269.28-12 269.28-16.1L269.28-16.1Q269.28-20.2 270.45-23.38 271.63-26.55 273.65-28.73 275.68-30.9 278.43-32.05 281.18-33.2 284.33-33.2L284.33-33.2Q287.63-33.2 289.95-31.93 292.28-30.65 293.88-29.05L293.88-29.05 289.83-24.5Q288.78-25.55 287.53-26.2 286.28-26.85 284.33-26.85L284.33-26.85Q282.73-26.85 281.38-26.13 280.03-25.4 279.03-24.05 278.03-22.7 277.45-20.75 276.88-18.8 276.88-16.35L276.88-16.35Q276.88-11.3 278.8-8.53 280.73-5.75 284.63-5.75L284.63-5.75Q285.58-5.75 286.43-6 287.28-6.25 287.83-6.75L287.83-6.75 287.83-12.35 283.08-12.35 283.08-18.35 294.43-18.35 294.43-3.35Q292.78-1.8 290.08-0.6 287.38 0.6 284.23 0.6Z" fill="#dcdcdc" data-fill-palette-color="secondary"></path></g></svg></g></svg></g></svg></g></svg></g><g><svg viewBox="0 0 74.67311026743013 62.227591889525115" height="62.227591889525115" width="74.67311026743013"><g><svg xmlns="http://www.w3.org/2000/svg" xmlns:xlink="http://www.w3.org/1999/xlink" version="1.1" x="0" y="0" viewBox="0 5 60 50" style="enable-background:new 0 0 60 60;" xml:space="preserve" height="62.227591889525115" width="74.67311026743013" class="icon-icon-0" data-fill-palette-color="accent" id="icon-0"><g fill="#dcdcdc" data-fill-palette-color="accent"><g fill="#dcdcdc" data-fill-palette-color="accent"><path d="M56 9.637V6c0-0.552-0.448-1-1-1H41c-0.552 0-1 0.448-1 1v3.093c-5.143 0.922-7 8.96-7 15.907 0 1.92 0.834 3.94 3.021 4.691C36.253 34.538 38.93 37 44 37h8c5.159 0 8-4.262 8-12C60 21.758 59.674 12.188 56 9.637zM42 7h12v2H42V7zM52 35h-8c-3.91 0-5.691-1.47-5.959-5.002 1.588-0.012 2.891-0.707 3.666-1.963 0.693-1.121 0.85-2.559 0.452-3.827 0.42-0.277 1.339-0.668 2.873-0.909 2.944-0.461 6.728-0.126 8.261 1.408 0.391 0.391 1.023 0.391 1.414 0s0.391-1.023 0-1.414c-2.132-2.133-6.594-2.518-10.07-1.956-1.392 0.226-3.83 0.813-4.531 2.215-0.141 0.282-0.141 0.613 0 0.896 0.394 0.785 0.353 1.804-0.1 2.536C39.718 27.447 39.139 28 38 28c-2.479 0-3-1.631-3-3 0-4.842 1.254-14 6-14h13c2.598 0 4 7.213 4 14C58 31.636 55.98 35 52 35zM23.978 30.309C23.747 25.462 21.071 23 16 23H8c-5.159 0-8 4.262-8 12 0 3.242 0.326 12.813 4 15.363V54c0 0.552 0.448 1 1 1h14c0.552 0 1-0.448 1-1v-3.093c5.142-0.923 7-8.96 7-15.907C27 33.08 26.166 31.061 23.978 30.309zM18 53H6v-2h12V53zM19 49H6c-2.598 0-4-7.213-4-14 0-6.636 2.019-10 6-10h8c3.91 0 5.691 1.47 5.959 5.002-1.588 0.012-2.89 0.707-3.666 1.963-0.693 1.121-0.85 2.559-0.452 3.827-0.42 0.276-1.339 0.668-2.873 0.909-2.942 0.462-6.727 0.127-8.261-1.408-0.391-0.391-1.023-0.391-1.414 0s-0.391 1.023 0 1.414c2.133 2.133 6.595 2.52 10.071 1.956 1.391-0.226 3.829-0.813 4.53-2.215 0.141-0.282 0.141-0.613 0-0.896-0.393-0.785-0.352-1.804 0.1-2.535C20.282 32.553 20.862 32 22 32c2.479 0 3 1.631 3 3C25 39.842 23.746 49 19 49z" fill="#dcdcdc" data-fill-palette-color="accent"></path></g></g></svg></g></svg></g></svg></g></svg><rect width="395.52" height="51.187775152093444" fill="none" stroke="none" visibility="hidden"></rect></g></svg></g></svg>